<svg width="260" height="260" xmlns="http://www.w3.org/2000/svg" xmlns:xlink="http://www.w3.org/1999/xlink" xml:space="preserve" overflow="hidden"><defs><clipPath id="clip0"><rect x="2460" y="1497" width="260" height="260"/></clipPath></defs><g clip-path="url(#clip0)" transform="translate(-2460 -1497)"><path d="M2558 1548C2558 1530.88 2571.66 1517 2588.5 1517 2605.34 1517 2619 1530.88 2619 1548 2619 1565.12 2605.34 1579 2588.5 1579 2571.66 1579 2558 1565.12 2558 1548Z" fill="#262626" fill-rule="evenodd"/><path d="M2524.14 1592.44C2547.99 1589.14 2575.22 1604.15 2589.5 1644.17 2626.64 1540.1 2751.28 1605.15 2676.59 1721.53L2667.18 1734 2511.82 1734 2502.41 1721.53C2456.45 1649.91 2485.97 1597.73 2524.14 1592.44Z" fill="#262626" fill-rule="evenodd"/></g></svg>