<?xml version="1.0" encoding="UTF-8" standalone="no"?>
<svg
   width="260"
   height="260"
   xml:space="preserve"
   overflow="hidden"
   version="1.1"
   id="svg13"
   sodipodi:docname="white_pawn.svg"
   inkscape:version="1.2 (dc2aedaf03, 2022-05-15)"
   xmlns:inkscape="http://www.inkscape.org/namespaces/inkscape"
   xmlns:sodipodi="http://sodipodi.sourceforge.net/DTD/sodipodi-0.dtd"
   xmlns="http://www.w3.org/2000/svg"
   xmlns:svg="http://www.w3.org/2000/svg"><sodipodi:namedview
     id="namedview15"
     pagecolor="#505050"
     bordercolor="#ffffff"
     borderopacity="1"
     inkscape:showpageshadow="0"
     inkscape:pageopacity="0"
     inkscape:pagecheckerboard="1"
     inkscape:deskcolor="#505050"
     showgrid="false"
     inkscape:zoom="1.4876439"
     inkscape:cx="-65.203776"
     inkscape:cy="223.84389"
     inkscape:window-width="1366"
     inkscape:window-height="705"
     inkscape:window-x="-8"
     inkscape:window-y="-8"
     inkscape:window-maximized="1"
     inkscape:current-layer="g11" /><defs
     id="defs5"><clipPath
       id="clip0"><rect
         x="1161"
         y="1757"
         width="259"
         height="260"
         id="rect2" /></clipPath></defs><g
     clip-path="url(#clip0)"
     transform="translate(-1161,-1757)"
     id="g11"><path
       style="color:#000000;fill:#262626;fill-rule:evenodd;stroke-miterlimit:8;-inkscape-stroke:none"
       d="m 1289,1767.1875 c -34.5654,0 -62.8125,28.2471 -62.8125,62.8125 0,34.5654 28.2471,62.8125 62.8125,62.8125 34.5735,0 62.8125,-28.2495 62.8125,-62.8125 0,-34.563 -28.239,-62.8125 -62.8125,-62.8125 z"
       id="path135"
       sodipodi:nodetypes="sssss" /><path
       style="color:#000000;fill:#262626;fill-rule:evenodd;stroke-miterlimit:8;-inkscape-stroke:none"
       d="m 1239.3223,1911.1875 -34.7657,91.625 h 14.9434 157.9434 l -34.7657,-91.625 z"
       id="path137"
       sodipodi:nodetypes="cccccc" /><path
       id="path7"
       style="fill:#ffffff;fill-opacity:1;stroke:none"
       d="m 1289,1787.8125 c -23.4146,0 -42.1875,18.7729 -42.1875,42.1875 0,23.4146 18.7729,42.1875 42.1875,42.1875 23.4265,0 42.1875,-18.7706 42.1875,-42.1875 0,-23.4169 -18.761,-42.1875 -42.1875,-42.1875 z" /><path
       id="path9"
       style="fill:#ffffff;fill-opacity:1;stroke:none"
       d="m 1253.5566,1931.8125 -19.1132,50.375 h 113.1132 l -19.1132,-50.375 z" /></g></svg>
