<?xml version="1.0" encoding="UTF-8" standalone="no"?>
<svg
   width="260"
   height="260"
   xml:space="preserve"
   overflow="hidden"
   version="1.1"
   id="svg1993"
   sodipodi:docname="white-king.svg"
   inkscape:version="1.2 (dc2aedaf03, 2022-05-15)"
   xmlns:inkscape="http://www.inkscape.org/namespaces/inkscape"
   xmlns:sodipodi="http://sodipodi.sourceforge.net/DTD/sodipodi-0.dtd"
   xmlns="http://www.w3.org/2000/svg"
   xmlns:svg="http://www.w3.org/2000/svg"><sodipodi:namedview
     id="namedview1995"
     pagecolor="#505050"
     bordercolor="#ffffff"
     borderopacity="1"
     inkscape:showpageshadow="0"
     inkscape:pageopacity="0"
     inkscape:pagecheckerboard="1"
     inkscape:deskcolor="#505050"
     showgrid="false"
     inkscape:zoom="2.1038462"
     inkscape:cx="90.786104"
     inkscape:cy="127.38574"
     inkscape:window-width="1366"
     inkscape:window-height="705"
     inkscape:window-x="-8"
     inkscape:window-y="-8"
     inkscape:window-maximized="1"
     inkscape:current-layer="g1991" /><defs
     id="defs1985"><clipPath
       id="clip0"><rect
         x="2460"
         y="1757"
         width="260"
         height="260"
         id="rect1982" /></clipPath></defs><g
     clip-path="url(#clip0)"
     transform="translate(-2460 -1757)"
     id="g1991"><path
       id="path1027"
       style="color:#000000;fill:#262626;fill-rule:evenodd;stroke-miterlimit:8;-inkscape-stroke:none"
       d="M 2589 1767.1875 C 2566.4935 1767.1875 2548.1875 1785.8945 2548.1875 1808.5 C 2548.1875 1831.1055 2566.4935 1849.8125 2589 1849.8125 C 2611.5065 1849.8125 2629.8125 1831.1055 2629.8125 1808.5 C 2629.8125 1785.8945 2611.5065 1767.1875 2589 1767.1875 z M 2589 1787.8125 C 2600.1734 1787.8125 2609.1875 1796.8656 2609.1875 1808.5 C 2609.1875 1820.1344 2600.1734 1829.1875 2589 1829.1875 C 2577.8266 1829.1875 2568.8125 1820.1344 2568.8125 1808.5 C 2568.8125 1796.8656 2577.8266 1787.8125 2589 1787.8125 z " /><path
       id="path1029"
       style="color:#000000;fill:#262626;fill-rule:evenodd;stroke-miterlimit:8;-inkscape-stroke:none"
       d="M 2647.7402 1842.1621 C 2642.7488 1842.2289 2637.7487 1842.9769 2632.877 1844.4766 C 2614.2695 1849.7123 2599.5177 1864.0206 2589.9805 1880.4102 C 2577.3937 1858.7911 2554.7986 1841.1499 2528.7051 1842.2441 C 2499.9164 1842.9882 2476.2371 1867.35 2471.0664 1894.7988 C 2464.2561 1928.2025 2477.3165 1962.3903 2495.8457 1989.7871 C 2499.6256 1994.7952 2503.4057 1999.8043 2507.1855 2004.8125 L 2672.8184 2004.8125 C 2682.1402 1992.7724 2691.4184 1980.5751 2697.5098 1966.4902 C 2711.1288 1937.995 2716.7882 1902.5953 2700.9414 1873.7656 C 2690.8307 1854.3599 2669.3696 1841.8725 2647.7402 1842.1621 z M 2647.9707 1862.7812 C 2656.0781 1862.5035 2664.1521 1865.1865 2670.7031 1869.9199 C 2688.3174 1882.5409 2693.1239 1906.4815 2689.2461 1926.7793 C 2685.3052 1947.7166 2675.663 1967.4758 2662.543 1984.1875 L 2519.334 1984.1875 C 2516.1797 1984.7957 2515.4354 1980.5664 2513.4355 1978.8574 C 2499.8123 1959.1262 2489.5626 1935.7173 2489.832 1911.3516 C 2489.8928 1892.09 2499.9314 1871.1488 2519.1914 1864.7734 C 2534.5083 1859.0968 2551.099 1866.3464 2562.0938 1877.2363 C 2574.031 1887.8473 2581.2369 1902.2513 2590.9492 1914.6758 C 2596.8992 1906.762 2601.7974 1898.1368 2607.6504 1890.1543 C 2617.1127 1876.6873 2630.3183 1862.9953 2647.9707 1862.7812 z " /></g></svg>
