<?xml version="1.0" encoding="UTF-8" standalone="no"?>
<svg
   width="260"
   height="260"
   xml:space="preserve"
   overflow="hidden"
   version="1.1"
   id="svg13"
   sodipodi:docname="white-pawn.svg"
   inkscape:version="1.2 (dc2aedaf03, 2022-05-15)"
   xmlns:inkscape="http://www.inkscape.org/namespaces/inkscape"
   xmlns:sodipodi="http://sodipodi.sourceforge.net/DTD/sodipodi-0.dtd"
   xmlns="http://www.w3.org/2000/svg"
   xmlns:svg="http://www.w3.org/2000/svg"><sodipodi:namedview
     id="namedview15"
     pagecolor="#505050"
     bordercolor="#ffffff"
     borderopacity="1"
     inkscape:showpageshadow="0"
     inkscape:pageopacity="0"
     inkscape:pagecheckerboard="1"
     inkscape:deskcolor="#505050"
     showgrid="false"
     inkscape:zoom="1.4876439"
     inkscape:cx="28.232563"
     inkscape:cy="134.44078"
     inkscape:window-width="1366"
     inkscape:window-height="705"
     inkscape:window-x="-8"
     inkscape:window-y="-8"
     inkscape:window-maximized="1"
     inkscape:current-layer="g11" /><defs
     id="defs5"><clipPath
       id="clip0"><rect
         x="1161"
         y="1757"
         width="259"
         height="260"
         id="rect2" /></clipPath></defs><g
     clip-path="url(#clip0)"
     transform="translate(-1161,-1757)"
     id="g11"><path
       id="path135"
       style="color:#000000;fill:#262626;fill-rule:evenodd;stroke-miterlimit:8;-inkscape-stroke:none"
       d="M 1289 1767.1875 C 1254.4346 1767.1875 1226.1875 1795.4346 1226.1875 1830 C 1226.1875 1864.5654 1254.4346 1892.8125 1289 1892.8125 C 1323.5735 1892.8125 1351.8125 1864.563 1351.8125 1830 C 1351.8125 1795.437 1323.5735 1767.1875 1289 1767.1875 z M 1289 1787.8125 C 1312.4265 1787.8125 1331.1875 1806.5831 1331.1875 1830 C 1331.1875 1853.4169 1312.4265 1872.1875 1289 1872.1875 C 1265.5854 1872.1875 1246.8125 1853.4146 1246.8125 1830 C 1246.8125 1806.5854 1265.5854 1787.8125 1289 1787.8125 z " /><path
       id="path137"
       style="color:#000000;fill:#262626;fill-rule:evenodd;stroke-miterlimit:8;-inkscape-stroke:none"
       d="M 1239.3223 1911.1875 L 1204.5566 2002.8125 L 1219.5 2002.8125 L 1377.4434 2002.8125 L 1342.6777 1911.1875 L 1239.3223 1911.1875 z M 1253.5566 1931.8125 L 1328.4434 1931.8125 L 1347.5566 1982.1875 L 1234.4434 1982.1875 L 1253.5566 1931.8125 z " /></g></svg>
