<?xml version="1.0" encoding="UTF-8" standalone="no"?>
<svg
   width="260"
   height="260"
   xml:space="preserve"
   overflow="hidden"
   version="1.1"
   id="svg17"
   sodipodi:docname="white-rook.svg"
   inkscape:version="1.2 (dc2aedaf03, 2022-05-15)"
   xmlns:inkscape="http://www.inkscape.org/namespaces/inkscape"
   xmlns:sodipodi="http://sodipodi.sourceforge.net/DTD/sodipodi-0.dtd"
   xmlns="http://www.w3.org/2000/svg"
   xmlns:svg="http://www.w3.org/2000/svg"><sodipodi:namedview
     id="namedview19"
     pagecolor="#505050"
     bordercolor="#ffffff"
     borderopacity="1"
     inkscape:showpageshadow="0"
     inkscape:pageopacity="0"
     inkscape:pagecheckerboard="1"
     inkscape:deskcolor="#505050"
     showgrid="false"
     inkscape:zoom="1.4876439"
     inkscape:cx="20.83832"
     inkscape:cy="138.474"
     inkscape:window-width="1366"
     inkscape:window-height="705"
     inkscape:window-x="-8"
     inkscape:window-y="-8"
     inkscape:window-maximized="1"
     inkscape:current-layer="g15" /><defs
     id="defs5"><clipPath
       id="clip0"><rect
         x="1420"
         y="1757"
         width="260"
         height="260"
         id="rect2" /></clipPath></defs><g
     clip-path="url(#clip0)"
     transform="translate(-1420 -1757)"
     id="g15"><path
       id="path1033"
       style="color:#000000;fill:#262626;fill-rule:evenodd;stroke-miterlimit:8;-inkscape-stroke:none"
       d="M 1455.1875 1773.1875 L 1455.1875 1889.8125 L 1485.2285 1889.8125 L 1467.4375 2002.8125 L 1479.5 2002.8125 L 1634.5625 2002.8125 L 1616.7715 1889.8125 L 1646.8125 1889.8125 L 1646.8125 1773.1875 L 1455.1875 1773.1875 z M 1475.8125 1793.8125 L 1510.1875 1793.8125 L 1510.1875 1825.4707 L 1530.8125 1825.4707 L 1530.8125 1793.8125 L 1571.1875 1793.8125 L 1571.1875 1825.4707 L 1591.8125 1825.4707 L 1591.8125 1793.8125 L 1626.1875 1793.8125 L 1626.1875 1869.1875 L 1475.8125 1869.1875 L 1475.8125 1793.8125 z M 1506.1094 1889.8125 L 1595.8906 1889.8125 L 1610.4355 1982.1875 L 1491.5645 1982.1875 L 1506.1094 1889.8125 z " /></g></svg>
