<svg width="260" height="260" xmlns="http://www.w3.org/2000/svg" xmlns:xlink="http://www.w3.org/1999/xlink" xml:space="preserve" overflow="hidden"><defs><clipPath id="clip0"><rect x="1940" y="1497" width="260" height="260"/></clipPath></defs><g clip-path="url(#clip0)" transform="translate(-1940 -1497)"><path d="M1998.91 1515 2052.77 1534.62 2067.96 1528.23C2077.51 1525.59 2087.59 1524.09 2098.18 1523.65 2140.53 1521.88 2178.22 1533.94 2179.97 1577.58 2181.18 1607.59 2140.9 1626.9 2105.97 1635.91L2104.2 1636.33 2127.12 1728 1971.33 1728C1970.68 1699.9 1970.7 1655.84 1981.5 1618.59L1988.41 1602.61 1968 1544.08 2009.86 1557.08Z" fill="#262626" fill-rule="evenodd"/><path d="M2040 1585C2040 1576.16 2046.94 1569 2055.5 1569 2064.06 1569 2071 1576.16 2071 1585 2071 1593.84 2064.06 1601 2055.5 1601 2046.94 1601 2040 1593.84 2040 1585Z" fill="#FFFFFF" fill-rule="evenodd"/><path d="M2083 1565.5C2083 1556.94 2090.16 1550 2099 1550 2107.84 1550 2115 1556.94 2115 1565.5 2115 1574.06 2107.84 1581 2099 1581 2090.16 1581 2083 1574.06 2083 1565.5Z" fill="#FFFFFF" fill-rule="evenodd"/></g></svg>