<?xml version="1.0" encoding="UTF-8" standalone="no"?>
<svg
   width="260"
   height="260"
   xml:space="preserve"
   overflow="hidden"
   version="1.1"
   id="svg951"
   sodipodi:docname="black-knight.svg"
   inkscape:version="1.2 (dc2aedaf03, 2022-05-15)"
   xmlns:inkscape="http://www.inkscape.org/namespaces/inkscape"
   xmlns:sodipodi="http://sodipodi.sourceforge.net/DTD/sodipodi-0.dtd"
   xmlns="http://www.w3.org/2000/svg"
   xmlns:svg="http://www.w3.org/2000/svg"><sodipodi:namedview
     id="namedview953"
     pagecolor="#505050"
     bordercolor="#ffffff"
     borderopacity="1"
     inkscape:showpageshadow="0"
     inkscape:pageopacity="0"
     inkscape:pagecheckerboard="1"
     inkscape:deskcolor="#505050"
     showgrid="false"
     inkscape:zoom="1.4876438"
     inkscape:cx="152.25418"
     inkscape:cy="172.0842"
     inkscape:window-width="1366"
     inkscape:window-height="705"
     inkscape:window-x="-8"
     inkscape:window-y="-8"
     inkscape:window-maximized="1"
     inkscape:current-layer="g949" /><defs
     id="defs939"><clipPath
       id="clip0"><rect
         x="1940"
         y="1757"
         width="260"
         height="260"
         id="rect936" /></clipPath></defs><g
     clip-path="url(#clip0)"
     transform="translate(-1940 -1757)"
     id="g949"><path
       id="path182"
       style="color:#000000;fill:#ffffff;fill-rule:evenodd;stroke-miterlimit:8;-inkscape-stroke:none;fill-opacity:1"
       d="m 1993.4966,1772.3977 c 2.4458,14.3351 4.8917,28.6702 7.3375,43.0053 -12.5506,-3.2082 -25.1011,-6.4164 -37.6517,-9.6246 4.8884,20.9769 9.7769,41.9537 14.6653,62.9306 -9.3815,18.8657 -12.0665,40.1168 -14.4784,60.8117 -2.565,25.0125 -2.3064,50.1915 -1.6154,75.2918 59.6914,0 119.3828,0 179.0742,0 -7.8978,-31.5879 -15.7955,-63.1758 -23.6933,-94.7637 24.9494,-7.9137 52.0557,-18.1944 66.8552,-41.1479 14.2127,-23.6191 4.7297,-56.3463 -16.3742,-72.6845 -23.8886,-17.6129 -55.5933,-18.2232 -83.9283,-15.0949 -10.7397,1.052 -20.9737,4.339 -30.6762,8.9216 -19.8382,-5.8818 -39.6765,-11.7636 -59.5147,-17.6454 z"
       sodipodi:nodetypes="ccccccccccccsccccscccccscscscscccscscccscccccc" /><path
       id="path941"
       style="fill:#050505;fill-opacity:1;stroke:none"
       d="m 2014.3379,1797.9121 c 3.5553,13.6719 7.1107,27.3437 10.666,41.0156 -13.3464,-4.1452 -26.6927,-8.2903 -40.0391,-12.4355 5,14.3398 10,28.6797 15,43.0195 -4.4084,10.4907 -9.7985,20.6799 -11.4414,32.0938 -5.6431,27.1187 -6.7211,54.9532 -6.4707,82.5761 h 132.3496 c -5.6411,-22.5612 -15.7355,-65.961 -21.5664,-89.4101 19.1972,-4.0889 38.0022,-10.0572 54.9688,-19.9863 11.3403,-6.9044 24.008,-17.6927 22.2324,-32.4629 -0.2418,-13.7031 -7.654,-27.1765 -20.2305,-33.209 -19.7342,-10.0046 -42.9437,-9.9156 -64.4257,-7.3867 -11.3758,0.908 -21.4743,6.228 -31.8399,10.4668 -13.0676,-4.7604 -26.1355,-9.5209 -39.2031,-14.2813 z"
       sodipodi:nodetypes="cccccccccccccc" /><path
       d="M2040 1853C2040 1843.06 2047.84 1835 2057.5 1835 2067.16 1835 2075 1843.06 2075 1853 2075 1862.94 2067.16 1871 2057.5 1871 2047.84 1871 2040 1862.94 2040 1853Z"
       fill="#262626"
       fill-rule="evenodd"
       id="path945"
       style="fill:#ffffff;fill-opacity:1" /><path
       d="M2083 1833.5C2083 1823.84 2091.06 1816 2101 1816 2110.94 1816 2119 1823.84 2119 1833.5 2119 1843.17 2110.94 1851 2101 1851 2091.06 1851 2083 1843.17 2083 1833.5Z"
       fill="#262626"
       fill-rule="evenodd"
       id="path947"
       style="fill:#ffffff;fill-opacity:1" /></g></svg>
