<?xml version="1.0" encoding="UTF-8" standalone="no"?>
<svg
   width="260"
   height="260"
   xml:space="preserve"
   overflow="hidden"
   version="1.1"
   id="svg15"
   sodipodi:docname="black-bishop.svg"
   inkscape:version="1.2 (dc2aedaf03, 2022-05-15)"
   xmlns:inkscape="http://www.inkscape.org/namespaces/inkscape"
   xmlns:sodipodi="http://sodipodi.sourceforge.net/DTD/sodipodi-0.dtd"
   xmlns="http://www.w3.org/2000/svg"
   xmlns:svg="http://www.w3.org/2000/svg"><sodipodi:namedview
     id="namedview17"
     pagecolor="#505050"
     bordercolor="#ffffff"
     borderopacity="1"
     inkscape:showpageshadow="0"
     inkscape:pageopacity="0"
     inkscape:pagecheckerboard="1"
     inkscape:deskcolor="#505050"
     showgrid="false"
     inkscape:zoom="2.1038462"
     inkscape:cx="85.319925"
     inkscape:cy="131.1883"
     inkscape:window-width="1366"
     inkscape:window-height="705"
     inkscape:window-x="-8"
     inkscape:window-y="-8"
     inkscape:window-maximized="1"
     inkscape:current-layer="g13" /><defs
     id="defs5"><clipPath
       id="clip0"><rect
         x="1680"
         y="1757"
         width="260"
         height="260"
         id="rect2" /></clipPath></defs><g
     clip-path="url(#clip0)"
     transform="translate(-1680 -1757)"
     id="g13"><path
       id="path1176"
       style="color:#000000;fill:#ffffff;fill-rule:evenodd;stroke-miterlimit:8;-inkscape-stroke:none;fill-opacity:1"
       d="m 1809.9707,1760.1875 c -21.5081,0 -39.1328,17.6993 -39.1328,39.2227 0,5.3856 1.0998,10.5667 3.0801,15.2597 l 0.3886,0.916 2.1485,3.1973 -15.8672,18.0215 c 0.1346,-0.1348 0.2586,-0.2762 0.3945,-0.4102 l -0.5019,0.5313 0.1074,-0.1211 c -26.7674,26.8006 -27.0457,70.1308 -0.8535,97.2871 l -54.1094,70.7207 h 20.875 189.875 l -54.1094,-70.7207 c 26.1932,-27.1573 25.9149,-70.4907 -0.8554,-97.291 l 0.1074,0.123 -0.5,-0.5293 c 0.1349,0.133 0.2589,0.2725 0.3926,0.4063 l -17.0352,-19.3399 1.2598,-1.875 0.3867,-0.916 c 1.9803,-4.693 3.0801,-9.8741 3.0801,-15.2597 0,-21.5234 -17.6228,-39.2227 -39.1309,-39.2227 z"
       sodipodi:nodetypes="sscccccccccccccccccccss" /><path
       style="stroke:none;fill:#000000;fill-opacity:1"
       d="m 1776.0625,1946.6953 -28.6875,37.4922 h 127.25 l -28.6875,-37.4922 c -21.5936,12.0874 -48.2814,12.0874 -69.875,0 z"
       id="path1181" /><path
       style="stroke:none;fill:#000000;fill-opacity:1"
       d="m 1809.9707,1780.8125 c -10.3319,0 -18.5078,8.181 -18.5078,18.5977 0,2.3585 0.4777,4.5511 1.2617,6.6074 l 9.7207,14.459 -26.7265,30.3535 -0.2618,0.2558 c -19.6604,19.3695 -19.6604,50.238 0,69.6075 19.6615,19.37 51.4245,19.37 71.086,0 18.7004,-18.4236 19.5986,-47.242 2.7246,-66.6817 l -29.377,30.2071 -14.7851,-14.3809 30.3925,-31.25 -17.1132,-19.4277 8.832,-13.1426 c 0.784,-2.0562 1.2598,-4.2489 1.2598,-6.6074 0,-10.4167 -8.174,-18.5977 -18.5059,-18.5977 z"
       id="path7" /></g></svg>
