<?xml version="1.0" encoding="UTF-8" standalone="no"?>
<svg
   width="260"
   height="260"
   xml:space="preserve"
   overflow="hidden"
   version="1.1"
   id="svg15"
   sodipodi:docname="black-knight.svg"
   inkscape:version="1.2 (dc2aedaf03, 2022-05-15)"
   xmlns:inkscape="http://www.inkscape.org/namespaces/inkscape"
   xmlns:sodipodi="http://sodipodi.sourceforge.net/DTD/sodipodi-0.dtd"
   xmlns="http://www.w3.org/2000/svg"
   xmlns:svg="http://www.w3.org/2000/svg"><sodipodi:namedview
     id="namedview17"
     pagecolor="#505050"
     bordercolor="#ffffff"
     borderopacity="1"
     inkscape:showpageshadow="0"
     inkscape:pageopacity="0"
     inkscape:pagecheckerboard="1"
     inkscape:deskcolor="#505050"
     showgrid="false"
     inkscape:zoom="2.1038462"
     inkscape:cx="141.64534"
     inkscape:cy="130.23766"
     inkscape:window-width="1366"
     inkscape:window-height="705"
     inkscape:window-x="-8"
     inkscape:window-y="-8"
     inkscape:window-maximized="1"
     inkscape:current-layer="svg15" /><defs
     id="defs5"><clipPath
       id="clip0"><rect
         x="1940"
         y="1497"
         width="260"
         height="260"
         id="rect2" /></clipPath></defs><g
     clip-path="url(#clip0)"
     transform="translate(-1940 -1497)"
     id="g13"><path
       id="path7"
       d="M 1998.9102 1515 L 2009.8594 1557.0801 L 1968 1544.0801 L 1988.4102 1602.6094 L 1981.5 1618.5898 C 1970.7 1655.8398 1970.6801 1699.9 1971.3301 1728 L 2127.1191 1728 L 2104.1992 1636.3301 L 2105.9707 1635.9102 C 2140.9007 1626.9002 2181.1807 1607.5899 2179.9707 1577.5801 C 2178.2207 1533.9401 2140.5295 1521.8804 2098.1797 1523.6504 C 2087.5897 1524.0904 2077.5109 1525.5905 2067.9609 1528.2305 L 2052.7695 1534.6191 L 1998.9102 1515 z M 2099 1550 C 2107.84 1550 2115 1556.94 2115 1565.5 C 2115 1574.06 2107.84 1581 2099 1581 C 2090.16 1581 2083 1574.06 2083 1565.5 C 2083 1556.94 2090.16 1550 2099 1550 z M 2055.5 1569 C 2064.06 1569 2071 1576.16 2071 1585 C 2071 1593.84 2064.06 1601 2055.5 1601 C 2046.94 1601 2040 1593.84 2040 1585 C 2040 1576.16 2046.94 1569 2055.5 1569 z "
       style="fill:#262626;fill-opacity:1" /></g></svg>
