<?xml version="1.0" encoding="UTF-8" standalone="no"?>
<svg
   width="260"
   height="260"
   xml:space="preserve"
   overflow="hidden"
   version="1.1"
   id="svg15"
   sodipodi:docname="white-bishop.svg"
   inkscape:version="1.2 (dc2aedaf03, 2022-05-15)"
   xmlns:inkscape="http://www.inkscape.org/namespaces/inkscape"
   xmlns:sodipodi="http://sodipodi.sourceforge.net/DTD/sodipodi-0.dtd"
   xmlns="http://www.w3.org/2000/svg"
   xmlns:svg="http://www.w3.org/2000/svg"><sodipodi:namedview
     id="namedview17"
     pagecolor="#505050"
     bordercolor="#ffffff"
     borderopacity="1"
     inkscape:showpageshadow="0"
     inkscape:pageopacity="0"
     inkscape:pagecheckerboard="1"
     inkscape:deskcolor="#505050"
     showgrid="false"
     inkscape:zoom="2.1038462"
     inkscape:cx="101.71846"
     inkscape:cy="131.1883"
     inkscape:window-width="1366"
     inkscape:window-height="705"
     inkscape:window-x="-8"
     inkscape:window-y="-8"
     inkscape:window-maximized="1"
     inkscape:current-layer="g13" /><defs
     id="defs5"><clipPath
       id="clip0"><rect
         x="1680"
         y="1757"
         width="260"
         height="260"
         id="rect2" /></clipPath></defs><g
     clip-path="url(#clip0)"
     transform="translate(-1680 -1757)"
     id="g13"><path
       id="path1176"
       style="color:#000000;fill:#262626;fill-rule:evenodd;stroke-miterlimit:8;-inkscape-stroke:none"
       d="M 1809.9707 1760.1875 C 1788.4626 1760.1875 1770.8379 1777.8868 1770.8379 1799.4102 C 1770.8379 1804.7958 1771.9377 1809.9769 1773.918 1814.6699 L 1774.3066 1815.5859 L 1776.4551 1818.7832 L 1760.5879 1836.8047 C 1760.7225 1836.6699 1760.8465 1836.5285 1760.9824 1836.3945 L 1760.4805 1836.9258 L 1760.5879 1836.8047 C 1733.8205 1863.6053 1733.5422 1906.9355 1759.7344 1934.0918 L 1705.625 2004.8125 L 1726.5 2004.8125 L 1916.375 2004.8125 L 1862.2656 1934.0918 C 1888.4588 1906.9345 1888.1803 1863.6011 1861.4102 1836.8008 L 1861.5176 1836.9238 L 1861.0176 1836.3945 C 1861.1525 1836.5275 1861.2765 1836.667 1861.4102 1836.8008 L 1844.375 1817.4609 L 1845.6348 1815.5859 L 1846.0215 1814.6699 C 1848.0018 1809.9769 1849.1016 1804.7958 1849.1016 1799.4102 C 1849.1016 1777.8868 1831.4788 1760.1875 1809.9707 1760.1875 z M 1809.9707 1780.8125 C 1820.3026 1780.8125 1828.4766 1788.9935 1828.4766 1799.4102 C 1828.4766 1801.7687 1828.0008 1803.9614 1827.2168 1806.0176 L 1818.3848 1819.1602 L 1835.498 1838.5879 L 1805.1055 1869.8379 L 1819.8906 1884.2188 L 1849.2676 1854.0117 C 1866.1416 1873.4514 1865.2434 1902.2698 1846.543 1920.6934 C 1826.8815 1940.0633 1795.1185 1940.0633 1775.457 1920.6934 C 1755.7967 1901.3239 1755.7967 1870.4554 1775.457 1851.0859 L 1775.7188 1850.8301 L 1802.4453 1820.4766 L 1792.7246 1806.0176 C 1791.9406 1803.9613 1791.4629 1801.7687 1791.4629 1799.4102 C 1791.4629 1788.9935 1799.6388 1780.8125 1809.9707 1780.8125 z M 1776.0625 1946.6953 C 1797.6561 1958.7827 1824.3439 1958.7827 1845.9375 1946.6953 L 1874.625 1984.1875 L 1747.375 1984.1875 L 1776.0625 1946.6953 z " /></g></svg>
