<svg width="260" height="260" xmlns="http://www.w3.org/2000/svg" xmlns:xlink="http://www.w3.org/1999/xlink" xml:space="preserve" overflow="hidden"><defs><clipPath id="clip0"><rect x="1680" y="1497" width="260" height="260"/></clipPath></defs><g clip-path="url(#clip0)" transform="translate(-1680 -1497)"><path d="M1753.51 1682 1765.28 1692.47C1778.07 1701.78 1793.49 1707.22 1810.08 1707.22 1826.68 1707.22 1842.09 1701.78 1854.88 1692.47L1866.56 1682.08 1915 1736 1705 1736Z" fill="#262626" fill-rule="evenodd"/><path d="M1810.42 1501C1824.2 1501 1835.37 1512.12 1835.37 1525.84 1835.37 1532.7 1832.58 1538.91 1828.06 1543.4L1825.73 1544.97 1843.24 1565.98 1806.99 1602.07 1821.59 1616.6 1856.02 1582.34 1866.57 1598.95C1875.43 1621.79 1871 1648.95 1853.28 1667.48 1829.65 1692.18 1791.35 1692.18 1767.72 1667.48 1744.09 1642.77 1744.09 1602.73 1767.72 1578.03L1795.21 1545.04 1792.77 1543.4C1788.25 1538.91 1785.46 1532.7 1785.46 1525.84 1785.46 1512.12 1796.63 1501 1810.42 1501Z" fill="#262626" fill-rule="evenodd"/></g></svg>