<svg width="2078" height="2079" xmlns="http://www.w3.org/2000/svg" xmlns:xlink="http://www.w3.org/1999/xlink" xml:space="preserve" overflow="hidden"><defs><clipPath id="clip0"><rect x="1161" y="198" width="2078" height="2079"/></clipPath></defs><g clip-path="url(#clip0)" transform="translate(-1161 -198)"><rect x="1680" y="1497" width="260" height="260" fill="#A6A6A6"/><rect x="2200" y="1757" width="260" height="260" fill="#FFFFFF"/><rect x="1420" y="198" width="260" height="260" fill="#A6A6A6"/><rect x="1680" y="198" width="260" height="260" fill="#FFFFFF"/><rect x="1940" y="198" width="260" height="260" fill="#A6A6A6"/><rect x="2200" y="198" width="260" height="260" fill="#FFFFFF"/><rect x="2460" y="198" width="260" height="260" fill="#A6A6A6"/><rect x="2720" y="198" width="260" height="260" fill="#FFFFFF"/><rect x="2980" y="198" width="259" height="260" fill="#A6A6A6"/><rect x="1161" y="198" width="259" height="260" fill="#FFFFFF"/><rect x="1680" y="458" width="260" height="260" fill="#A6A6A6"/><rect x="1940" y="458" width="260" height="260" fill="#FFFFFF"/><rect x="2200" y="458" width="260" height="260" fill="#A6A6A6"/><rect x="2460" y="458" width="260" height="260" fill="#FFFFFF"/><rect x="2720" y="458" width="260" height="260" fill="#A6A6A6"/><rect x="2980" y="458" width="259" height="260" fill="#FFFFFF"/><rect x="1161" y="458" width="259" height="260" fill="#A6A6A6"/><rect x="1420" y="458" width="260" height="260" fill="#FFFFFF"/><rect x="1420" y="718" width="260" height="260" fill="#A6A6A6"/><rect x="1680" y="718" width="260" height="260" fill="#FFFFFF"/><rect x="1940" y="718" width="260" height="260" fill="#A6A6A6"/><rect x="2200" y="718" width="260" height="260" fill="#FFFFFF"/><rect x="2460" y="718" width="260" height="260" fill="#A6A6A6"/><rect x="2720" y="718" width="260" height="260" fill="#FFFFFF"/><rect x="2980" y="718" width="259" height="260" fill="#A6A6A6"/><rect x="1161" y="718" width="259" height="260" fill="#FFFFFF"/><rect x="1680" y="978" width="260" height="260" fill="#A6A6A6"/><rect x="1940" y="978" width="260" height="260" fill="#FFFFFF"/><rect x="2200" y="978" width="260" height="260" fill="#A6A6A6"/><rect x="2460" y="978" width="260" height="260" fill="#FFFFFF"/><rect x="2720" y="978" width="260" height="260" fill="#A6A6A6"/><rect x="2980" y="978" width="259" height="260" fill="#FFFFFF"/><rect x="1161" y="978" width="259" height="260" fill="#A6A6A6"/><rect x="1420" y="978" width="260" height="260" fill="#FFFFFF"/><rect x="1420" y="1238" width="260" height="259" fill="#A6A6A6"/><rect x="1680" y="1238" width="260" height="259" fill="#FFFFFF"/><rect x="1940" y="1238" width="260" height="259" fill="#A6A6A6"/><rect x="2200" y="1238" width="260" height="259" fill="#FFFFFF"/><rect x="2460" y="1238" width="260" height="259" fill="#A6A6A6"/><rect x="2720" y="1238" width="260" height="259" fill="#FFFFFF"/><rect x="2980" y="1238" width="259" height="259" fill="#A6A6A6"/><rect x="1161" y="1238" width="259" height="259" fill="#FFFFFF"/><rect x="1940" y="1497" width="260" height="260" fill="#FFFFFF"/><rect x="2200" y="1497" width="260" height="260" fill="#A6A6A6"/><rect x="2460" y="1497" width="260" height="260" fill="#FFFFFF"/><rect x="2720" y="1497" width="260" height="260" fill="#A6A6A6"/><rect x="2980" y="1497" width="259" height="260" fill="#FFFFFF"/><rect x="1161" y="1497" width="259" height="260" fill="#A6A6A6"/><rect x="1420" y="1497" width="260" height="260" fill="#FFFFFF"/><rect x="1420" y="1757" width="260" height="260" fill="#A6A6A6"/><rect x="1680" y="1757" width="260" height="260" fill="#FFFFFF"/><rect x="1940" y="1757" width="260" height="260" fill="#A6A6A6"/><rect x="2460" y="1757" width="260" height="260" fill="#A6A6A6"/><rect x="2720" y="1757" width="260" height="260" fill="#FFFFFF"/><rect x="2980" y="1757" width="259" height="260" fill="#A6A6A6"/><rect x="1161" y="1757" width="259" height="260" fill="#FFFFFF"/><rect x="1680" y="2017" width="260" height="260" fill="#A6A6A6"/><rect x="1940" y="2017" width="260" height="260" fill="#FFFFFF"/><rect x="2200" y="2017" width="260" height="260" fill="#A6A6A6"/><rect x="2460" y="2017" width="260" height="260" fill="#FFFFFF"/><rect x="2720" y="2017" width="260" height="260" fill="#A6A6A6"/><rect x="2980" y="2017" width="259" height="260" fill="#FFFFFF"/><rect x="1161" y="2017" width="259" height="260" fill="#A6A6A6"/><rect x="1420" y="2017" width="260" height="260" fill="#FFFFFF"/></g></svg>