<?xml version="1.0" encoding="UTF-8" standalone="no"?>
<svg
   width="260"
   height="260"
   xml:space="preserve"
   overflow="hidden"
   version="1.1"
   id="svg951"
   sodipodi:docname="white-knight.svg"
   inkscape:version="1.2 (dc2aedaf03, 2022-05-15)"
   xmlns:inkscape="http://www.inkscape.org/namespaces/inkscape"
   xmlns:sodipodi="http://sodipodi.sourceforge.net/DTD/sodipodi-0.dtd"
   xmlns="http://www.w3.org/2000/svg"
   xmlns:svg="http://www.w3.org/2000/svg"><sodipodi:namedview
     id="namedview953"
     pagecolor="#505050"
     bordercolor="#ffffff"
     borderopacity="1"
     inkscape:showpageshadow="0"
     inkscape:pageopacity="0"
     inkscape:pagecheckerboard="1"
     inkscape:deskcolor="#505050"
     showgrid="false"
     inkscape:zoom="2.1038461"
     inkscape:cx="73.674591"
     inkscape:cy="136.41682"
     inkscape:window-width="1366"
     inkscape:window-height="705"
     inkscape:window-x="-8"
     inkscape:window-y="-8"
     inkscape:window-maximized="1"
     inkscape:current-layer="g949" /><defs
     id="defs939"><clipPath
       id="clip0"><rect
         x="1940"
         y="1757"
         width="260"
         height="260"
         id="rect936" /></clipPath></defs><g
     clip-path="url(#clip0)"
     transform="translate(-1940 -1757)"
     id="g949"><path
       id="path182"
       style="color:#000000;fill:#262626;fill-rule:evenodd;stroke-miterlimit:8;-inkscape-stroke:none"
       d="M 1993.4961 1772.3984 C 1995.9419 1786.7335 1998.3882 1801.0673 2000.834 1815.4023 C 1988.2834 1812.1941 1975.7322 1808.9875 1963.1816 1805.7793 C 1968.07 1826.7562 1972.9593 1847.7321 1977.8477 1868.709 C 1968.4662 1887.5747 1965.781 1908.8266 1963.3691 1929.5215 C 1960.8041 1954.534 1961.0629 1979.7122 1961.7539 2004.8125 L 2140.8281 2004.8125 C 2132.9303 1973.2246 2125.0326 1941.6367 2117.1348 1910.0488 C 2142.0841 1902.1351 2169.1907 1891.8539 2183.9902 1868.9004 C 2198.2029 1845.2813 2188.7191 1812.555 2167.6152 1796.2168 C 2143.7267 1778.6039 2112.0225 1777.9928 2083.6875 1781.1211 C 2072.9478 1782.1731 2062.7142 1785.4604 2053.0117 1790.043 C 2033.1735 1784.1612 2013.3343 1778.2802 1993.4961 1772.3984 z M 2014.3379 1797.9121 C 2027.4055 1802.6725 2040.4734 1807.433 2053.541 1812.1934 C 2063.9066 1807.9546 2074.0051 1802.6346 2085.3809 1801.7266 C 2106.8629 1799.1977 2130.0724 1799.1087 2149.8066 1809.1133 C 2162.3831 1815.1458 2169.7953 1828.6192 2170.0371 1842.3223 C 2171.8127 1857.0925 2159.145 1867.8808 2147.8047 1874.7852 C 2122.9671 1889.3205 2094.2111 1895.4689 2066.0117 1899.4629 C 2066.758 1905.7645 2067.5036 1912.0656 2068.25 1918.3672 L 2097.1152 1915.043 C 2102.8776 1938.0891 2108.6399 1961.1355 2114.4023 1984.1816 L 1982.0527 1984.1816 C 1981.8023 1956.5587 1982.8803 1928.7242 1988.5234 1901.6055 C 1990.1663 1890.1916 1995.5564 1880.0024 1999.9648 1869.5117 C 1994.9648 1855.1719 1989.9648 1840.832 1984.9648 1826.4922 C 1998.3112 1830.6374 2011.6575 1834.7825 2025.0039 1838.9277 C 2021.4486 1825.2558 2017.8932 1811.584 2014.3379 1797.9121 z " /><path
       d="M2040 1853C2040 1843.06 2047.84 1835 2057.5 1835 2067.16 1835 2075 1843.06 2075 1853 2075 1862.94 2067.16 1871 2057.5 1871 2047.84 1871 2040 1862.94 2040 1853Z"
       fill="#262626"
       fill-rule="evenodd"
       id="path945" /><path
       d="M2083 1833.5C2083 1823.84 2091.06 1816 2101 1816 2110.94 1816 2119 1823.84 2119 1833.5 2119 1843.17 2110.94 1851 2101 1851 2091.06 1851 2083 1843.17 2083 1833.5Z"
       fill="#262626"
       fill-rule="evenodd"
       id="path947" /></g></svg>
